<?xml version="1.0" standalone="no"?>
<!DOCTYPE svg PUBLIC "-//W3C//DTD SVG 20010904//EN"
 "http://www.w3.org/TR/2001/REC-SVG-20010904/DTD/svg10.dtd">
<svg version="1.0" xmlns="http://www.w3.org/2000/svg"
 width="1296.000000pt" height="1296.000000pt" viewBox="0 0 1296.000000 1296.000000"
 preserveAspectRatio="xMidYMid meet">
<metadata>
Created by potrace 1.14, written by Peter Selinger 2001-2017
</metadata>
<g transform="translate(0.000000,1296.000000) scale(0.100000,-0.100000)"
fill="#000000" stroke="none">
<path d="M6178 12955 c-2 -2 -53 -6 -115 -9 -62 -3 -127 -8 -145 -10 -18 -3
-62 -7 -98 -10 -36 -3 -76 -8 -90 -10 -14 -2 -52 -8 -85 -12 -33 -4 -67 -8
-75 -9 -8 -2 -42 -6 -74 -10 -33 -3 -63 -8 -66 -10 -4 -3 -27 -7 -51 -10 -24
-3 -51 -7 -59 -10 -8 -2 -31 -7 -50 -10 -83 -14 -277 -57 -425 -95 -165 -43
-613 -186 -629 -201 -6 -5 -17 -9 -25 -9 -9 -1 -34 -9 -56 -20 -22 -11 -43
-19 -47 -20 -4 0 -56 -21 -115 -46 -305 -130 -637 -302 -881 -455 -51 -33 -95
-59 -98 -59 -3 0 -10 -5 -17 -10 -7 -6 -82 -58 -167 -117 -221 -151 -475 -352
-668 -526 -75 -68 -405 -398 -462 -463 -144 -162 -257 -299 -361 -439 -49 -66
-93 -124 -97 -130 -156 -207 -411 -632 -538 -895 -174 -358 -265 -587 -374
-930 -41 -128 -86 -286 -104 -360 -15 -60 -76 -342 -81 -370 -3 -19 -8 -42
-10 -50 -2 -8 -6 -33 -10 -55 -3 -22 -10 -69 -16 -105 -15 -100 -17 -111 -24
-170 -4 -30 -8 -66 -10 -80 -2 -14 -6 -54 -10 -90 -4 -36 -8 -76 -10 -90 -20
-135 -28 -815 -11 -1005 4 -55 8 -107 8 -115 1 -20 36 -335 43 -385 59 -383
133 -707 241 -1050 19 -60 39 -119 43 -130 5 -11 30 -78 56 -150 77 -212 134
-344 278 -645 12 -25 30 -58 42 -75 11 -16 18 -30 15 -30 -3 0 27 -56 65 -125
39 -69 71 -131 73 -137 2 -7 8 -13 13 -13 5 0 9 -5 9 -10 0 -13 134 -227 228
-365 121 -177 334 -456 404 -530 10 -11 28 -31 39 -45 243 -296 712 -731 1069
-990 41 -30 77 -57 80 -60 5 -6 244 -164 350 -232 174 -112 579 -327 781 -414
289 -125 517 -208 819 -298 202 -60 577 -144 765 -172 28 -4 57 -8 65 -10 66
-12 304 -41 395 -48 204 -17 290 -20 560 -21 487 0 806 28 1235 110 310 59
562 125 850 222 127 43 323 116 393 147 18 7 55 23 83 34 212 87 714 346 778
401 10 9 19 14 20 12 0 -3 15 4 31 14 44 27 373 247 405 270 15 11 50 35 76
54 27 19 51 37 54 41 3 3 46 37 95 75 246 191 528 452 735 684 47 52 108 120
135 150 73 80 78 85 99 109 l20 23 -2615 -1 c-1438 0 -2636 2 -2664 5 -27 2
-79 7 -115 10 -58 5 -174 19 -240 30 -71 11 -209 37 -240 45 -19 5 -47 11 -61
14 -14 2 -61 14 -103 26 -43 12 -85 23 -94 25 -41 8 -307 100 -412 143 -114
46 -375 173 -480 232 -377 215 -760 524 -1041 840 -153 172 -344 424 -423 558
-17 29 -36 61 -41 70 -100 167 -203 369 -273 538 -46 110 -147 395 -157 441
-2 10 -13 52 -24 94 -20 70 -45 176 -56 239 -3 14 -7 34 -10 46 -3 12 -7 39
-10 60 -3 21 -10 62 -15 89 -5 28 -12 77 -15 110 -3 33 -8 69 -10 80 -24 120
-24 745 0 870 2 11 7 47 10 80 15 158 66 409 126 617 38 134 116 362 143 423
8 17 28 64 46 105 123 286 301 587 512 865 134 177 422 480 589 620 147 123
239 192 391 293 378 253 787 439 1228 559 113 30 352 80 425 88 33 4 62 9 65
10 5 3 85 12 174 21 131 12 256 17 366 15 69 -2 1229 -5 2578 -6 l2453 -4 -51
61 c-153 183 -427 467 -601 623 -113 101 -193 170 -213 185 -12 8 -27 20 -35
28 -18 17 -257 202 -301 232 -19 13 -37 27 -40 31 -5 6 -334 223 -412 270
-442 272 -1026 526 -1555 678 -164 46 -393 103 -473 117 -14 2 -45 9 -70 14
-47 10 -154 29 -205 37 -16 2 -55 8 -85 13 -30 5 -77 12 -105 15 -27 3 -70 8
-95 11 -24 3 -65 8 -90 10 -25 2 -72 7 -105 10 -33 3 -80 7 -105 9 -53 6 -757
15 -762 10z"/>
<path d="M9750 9011 c0 -3 11 -19 25 -36 184 -228 379 -560 507 -865 50 -117
59 -140 64 -155 2 -5 26 -74 53 -151 108 -316 186 -701 208 -1038 13 -190 6
-609 -11 -706 -3 -14 -7 -52 -11 -85 -5 -54 -37 -250 -50 -315 -3 -14 -8 -38
-11 -55 -15 -85 -71 -288 -120 -434 -135 -405 -330 -784 -569 -1106 -45 -60
-84 -115 -88 -121 -5 -9 343 -11 1344 -10 l1350 1 49 120 c26 66 60 154 75
195 15 41 31 84 35 95 10 24 72 213 71 217 0 2 7 26 15 53 16 49 38 126 67
235 23 85 72 302 92 410 3 14 7 36 10 50 2 13 7 40 10 60 3 20 8 47 10 60 3
14 8 44 11 66 2 23 6 50 8 61 7 36 23 165 31 258 3 33 8 78 10 100 27 238 27
816 0 1145 -4 42 -6 66 -21 190 -36 312 -97 622 -189 965 -55 206 -226 693
-275 784 -8 17 -87 18 -1354 18 -741 0 -1346 -3 -1346 -6z"/>
</g>
</svg>
