<svg width="396" height="396" xmlns="http://www.w3.org/2000/svg" xmlns:xlink="http://www.w3.org/1999/xlink" overflow="hidden"><defs><clipPath id="clip0"><rect x="4654" y="1166" width="396" height="396"/></clipPath></defs><g clip-path="url(#clip0)" transform="translate(-4654 -1166)"><path d="M4836.77 1265 4836.77 1348.77 4753 1348.77 4753 1379.23 4836.77 1379.23 4836.77 1463 4867.23 1463 4867.23 1379.23 4951 1379.23 4951 1348.77 4867.23 1348.77 4867.23 1265ZM4678.12 1166 5025.88 1166C5039.2 1166 5050 1176.8 5050 1190.12L5050 1537.88C5050 1551.2 5039.2 1562 5025.88 1562L4678.12 1562C4664.8 1562 4654 1551.2 4654 1537.88L4654 1190.12C4654 1176.8 4664.8 1166 4678.12 1166Z" fill="#FFFFFF" fill-rule="evenodd" fill-opacity="0"/></g></svg>